ffmpeg started on 2025-05-12 at 13:05:25
Report written to "D:\Convert\FFMetrics\reports\psnr_report-6.txt"
Log level: 32
Command line:
ffmpeg -hide_banner -nostdin -i "G:\\\xc0\xed\xe8\xec\xe5\\\xce\xed\xe3\xee\xe8\xed\xe3\xe8\\!_35_\xcb\xe5\xf2\xee_2024\\DreamCast\\\xc0\xeb\xff \xe8\xed\xee\xe3\xe4\xe0 \xea\xee\xea\xe5\xf2\xed\xe8\xf7\xe0\xe5\xf2 \xf1\xee \xec\xed\xee\xe9 \xef\xee-\xf0\xf3\xf1\xf1\xea\xe8\\[DC] Roshidere - 04_Telegram_HEVC.mkv" -i "G:\\\xc0\xed\xe8\xec\xe5\\\xce\xed\xe3\xee\xe8\xed\xe3\xe8\\!_35_\xcb\xe5\xf2\xee_2024\\DreamCast\\\xc0\xeb\xff \xe8\xed\xee\xe3\xe4\xe0 \xea\xee\xea\xe5\xf2\xed\xe8\xf7\xe0\xe5\xf2 \xf1\xee \xec\xed\xee\xe9 \xef\xee-\xf0\xf3\xf1\xf1\xea\xe8\\[DC] Roshidere - 04_Telegram.mp4" -lavfi "[0:v]settb=AVTB,setpts=PTS-STARTPTS,format=pix_fmts=yuv420p10,fps=24000/1001,scale=1920:1080:flags=bicubic[main];[1:v]settb=AVTB,setpts=PTS-STARTPTS,format=pix_fmts=yuv420p,fps=24000/1001,scale=1920:1080:flags=bicubic[ref];[main][ref]psnr=eof_action=endall:stats_file='D\\:/Convert/FFMetrics/logs/psnr_logfile-6.txt'" -f null -
Input #0, matroska,webm, from 'G:\Аниме\Онгоинги\!_35_Лето_2024\DreamCast\Аля иногда кокетничает со мной по-русски\[DC] Roshidere - 04_Telegram_HEVC.mkv':
  Metadata:
    COMPATIBLE_BRANDS: isomiso2avc1mp41
    MAJOR_BRAND     : isom
    MINOR_VERSION   : 512
    ENCODER         : Lavf61.7.100
  Duration: 00:24:16.68, start: -0.021000, bitrate: 1030 kb/s
  Stream #0:0: Video: hevc (Main 10), yuv420p10le(tv, bt709, progressive), 1920x1080 [SAR 1:1 DAR 16:9], 23.98 fps, 23.98 tbr, 1k tbn (default)
      Metadata:
        HANDLER_NAME    : VideoHandler
        VENDOR_ID       : [0][0][0][0]
        ENCODER         : Lavc61.19.100 libx265
        BPS             : 833701
        DURATION        : 00:24:16.538708333
        NUMBER_OF_FRAMES: 34922
        NUMBER_OF_BYTES : 151789754
        _STATISTICS_WRITING_APP: mkvpropedit v66.0.0 ('Josie') 64-bit
        _STATISTICS_WRITING_DATE_UTC: 2025-05-06 11:55:25
        _STATISTICS_TAGS: BPS DURATION NUMBER_OF_FRAMES NUMBER_OF_BYTES
  Stream #0:1: Audio: aac (LC), 48000 Hz, stereo, fltp (default)
      Metadata:
        HANDLER_NAME    : SoundHandler
        VENDOR_ID       : [0][0][0][0]
        ENCODER         : Lavc61.19.100 aac
        BPS             : 193178
        DURATION        : 00:24:16.682000000
        NUMBER_OF_FRAMES: 68283
        NUMBER_OF_BYTES : 35174919
        _STATISTICS_WRITING_APP: mkvpropedit v66.0.0 ('Josie') 64-bit
        _STATISTICS_WRITING_DATE_UTC: 2025-05-06 11:55:25
        _STATISTICS_TAGS: BPS DURATION NUMBER_OF_FRAMES NUMBER_OF_BYTES
Input #1, mov,mp4,m4a,3gp,3g2,mj2, from 'G:\Аниме\Онгоинги\!_35_Лето_2024\DreamCast\Аля иногда кокетничает со мной по-русски\[DC] Roshidere - 04_Telegram.mp4':
  Metadata:
    major_brand     : isom
    minor_version   : 512
    compatible_brands: isomiso2avc1mp41
    encoder         : Lavf61.1.100
  Duration: 00:24:16.65, start: 0.000000, bitrate: 3702 kb/s
  Stream #1:0[0x1](und): Video: h264 (High) (avc1 / 0x31637661), yuv420p(tv, bt709, progressive), 1920x1080 [SAR 1:1 DAR 16:9], 3554 kb/s, 23.98 fps, 23.98 tbr, 24k tbn (default)
      Metadata:
        handler_name    : VideoHandler
        vendor_id       : [0][0][0][0]
        encoder         : Lavc61.3.100 h264_qsv
  Stream #1:1[0x2](und): Audio: aac (HE-AACv2) (mp4a / 0x6134706D), 48000 Hz, stereo, fltp, 144 kb/s (default)
      Metadata:
        handler_name    : SoundHandler
        vendor_id       : [0][0][0][0]
Stream mapping:
  Stream #0:0 (hevc) -> settb:default
  Stream #1:0 (h264) -> settb:default
  psnr:default -> Stream #0:0 (wrapped_avframe)
  Stream #0:1 -> #0:1 (aac (native) -> pcm_s16le (native))
Output #0, null, to 'pipe:':
  Metadata:
    COMPATIBLE_BRANDS: isomiso2avc1mp41
    MAJOR_BRAND     : isom
    MINOR_VERSION   : 512
    encoder         : Lavf61.7.100
  Stream #0:0: Video: wrapped_avframe, yuv420p10le(tv, bt709, progressive), 1920x1080 [SAR 1:1 DAR 16:9], q=2-31, 200 kb/s, 23.98 fps, 23.98 tbn
      Metadata:
        encoder         : Lavc61.19.100 wrapped_avframe
  Stream #0:1: Audio: pcm_s16le, 48000 Hz, stereo, s16, 1536 kb/s (default)
      Metadata:
        HANDLER_NAME    : SoundHandler
        VENDOR_ID       : [0][0][0][0]
        _STATISTICS_TAGS: BPS DURATION NUMBER_OF_FRAMES NUMBER_OF_BYTES
        BPS             : 193178
        DURATION        : 00:24:16.682000000
        NUMBER_OF_FRAMES: 68283
        NUMBER_OF_BYTES : 35174919
        _STATISTICS_WRITING_APP: mkvpropedit v66.0.0 ('Josie') 64-bit
        _STATISTICS_WRITING_DATE_UTC: 2025-05-06 11:55:25
        encoder         : Lavc61.19.100 pcm_s16le
frame=  158 fps=0.0 q=-0.0 size=N/A time=00:00:06.58 bitrate=N/A speed=12.9x    frame=  402 fps=392 q=-0.0 size=N/A time=00:00:16.76 bitrate=N/A speed=16.3x    frame=  663 fps=430 q=-0.0 size=N/A time=00:00:27.65 bitrate=N/A speed=17.9x    frame=  914 fps=443 q=-0.0 size=N/A time=00:00:38.12 bitrate=N/A speed=18.5x    frame= 1139 fps=442 q=-0.0 size=N/A time=00:00:47.50 bitrate=N/A speed=18.4x    frame= 1318 fps=426 q=-0.0 size=N/A time=00:00:54.97 bitrate=N/A speed=17.8x    frame= 1589 fps=440 q=-0.0 size=N/A time=00:01:06.31 bitrate=N/A speed=18.4x    frame= 1850 fps=448 q=-0.0 size=N/A time=00:01:17.20 bitrate=N/A speed=18.7x    frame= 2125 fps=458 q=-0.0 size=N/A time=00:01:28.63 bitrate=N/A speed=19.1x    frame= 2395 fps=464 q=-0.0 size=N/A time=00:01:39.89 bitrate=N/A speed=19.4x    frame= 2649 fps=468 q=-0.0 size=N/A time=00:01:50.48 bitrate=N/A speed=19.5x    frame= 2921 fps=472 q=-0.0 size=N/A time=00:02:01.83 bitrate=N/A speed=19.7x    frame= 3164 fps=472 q=-0.0 size=N/A time=00:02:11.96 bitrate=N/A speed=19.7x    frame= 3382 fps=468 q=-0.0 size=N/A time=00:02:21.05 bitrate=N/A speed=19.5x    frame= 3553 fps=460 q=-0.0 size=N/A time=00:02:28.18 bitrate=N/A speed=19.2x    frame= 3765 fps=456 q=-0.0 size=N/A time=00:02:37.03 bitrate=N/A speed=  19x    frame= 3956 fps=452 q=-0.0 size=N/A time=00:02:44.99 bitrate=N/A speed=18.8x    frame= 4159 fps=448 q=-0.0 size=N/A time=00:02:53.46 bitrate=N/A speed=18.7x    frame= 4374 fps=447 q=-0.0 size=N/A time=00:03:02.43 bitrate=N/A speed=18.6x    frame= 4571 fps=443 q=-0.0 size=N/A time=00:03:10.64 bitrate=N/A speed=18.5x    frame= 4738 fps=437 q=-0.0 size=N/A time=00:03:17.61 bitrate=N/A speed=18.2x    frame= 4904 fps=432 q=-0.0 size=N/A time=00:03:24.53 bitrate=N/A speed=  18x    frame= 5089 fps=429 q=-0.0 size=N/A time=00:03:32.25 bitrate=N/A speed=17.9x    frame= 5275 fps=426 q=-0.0 size=N/A time=00:03:40.01 bitrate=N/A speed=17.8x    frame= 5513 fps=428 q=-0.0 size=N/A time=00:03:49.93 bitrate=N/A speed=17.8x    frame= 5767 fps=430 q=-0.0 size=N/A time=00:04:00.53 bitrate=N/A speed=  18x    frame= 6036 fps=434 q=-0.0 size=N/A time=00:04:11.75 bitrate=N/A speed=18.1x    frame= 6280 fps=435 q=-0.0 size=N/A time=00:04:21.92 bitrate=N/A speed=18.1x    frame= 6504 fps=435 q=-0.0 size=N/A time=00:04:31.27 bitrate=N/A speed=18.1x    frame= 6736 fps=436 q=-0.0 size=N/A time=00:04:40.94 bitrate=N/A speed=18.2x    frame= 6982 fps=437 q=-0.0 size=N/A time=00:04:51.24 bitrate=N/A speed=18.2x    frame= 7246 fps=439 q=-0.0 size=N/A time=00:05:02.21 bitrate=N/A speed=18.3x    frame= 7507 fps=441 q=-0.0 size=N/A time=00:05:13.10 bitrate=N/A speed=18.4x    frame= 7763 fps=443 q=-0.0 size=N/A time=00:05:23.78 bitrate=N/A speed=18.5x    frame= 8029 fps=445 q=-0.0 size=N/A time=00:05:34.87 bitrate=N/A speed=18.6x    frame= 8290 fps=447 q=-0.0 size=N/A time=00:05:45.76 bitrate=N/A speed=18.6x    frame= 8542 fps=448 q=-0.0 size=N/A time=00:05:56.27 bitrate=N/A speed=18.7x    frame= 8777 fps=448 q=-0.0 size=N/A time=00:06:06.07 bitrate=N/A speed=18.7x    frame= 9037 fps=450 q=-0.0 size=N/A time=00:06:16.91 bitrate=N/A speed=18.7x    frame= 9261 fps=449 q=-0.0 size=N/A time=00:06:26.26 bitrate=N/A speed=18.7x    frame= 9478 fps=448 q=-0.0 size=N/A time=00:06:35.31 bitrate=N/A speed=18.7x    frame= 9666 fps=446 q=-0.0 size=N/A time=00:06:43.15 bitrate=N/A speed=18.6x    frame= 9932 fps=448 q=-0.0 size=N/A time=00:06:54.24 bitrate=N/A speed=18.7x    frame=10192 fps=449 q=-0.0 size=N/A time=00:07:05.09 bitrate=N/A speed=18.7x    frame=10430 fps=449 q=-0.0 size=N/A time=00:07:15.01 bitrate=N/A speed=18.7x    frame=10690 fps=450 q=-0.0 size=N/A time=00:07:25.86 bitrate=N/A speed=18.8x    frame=10871 fps=448 q=-0.0 size=N/A time=00:07:33.41 bitrate=N/A speed=18.7x    frame=11048 fps=446 q=-0.0 size=N/A time=00:07:40.79 bitrate=N/A speed=18.6x    frame=11213 fps=443 q=-0.0 size=N/A time=00:07:47.67 bitrate=N/A speed=18.5x    frame=11461 fps=444 q=-0.0 size=N/A time=00:07:58.01 bitrate=N/A speed=18.5x    frame=11725 fps=445 q=-0.0 size=N/A time=00:08:09.03 bitrate=N/A speed=18.6x    frame=11983 fps=447 q=-0.0 size=N/A time=00:08:19.79 bitrate=N/A speed=18.6x    frame=12231 fps=447 q=-0.0 size=N/A time=00:08:30.13 bitrate=N/A speed=18.6x    frame=12451 fps=447 q=-0.0 size=N/A time=00:08:39.31 bitrate=N/A speed=18.6x    frame=12696 fps=447 q=-0.0 size=N/A time=00:08:49.52 bitrate=N/A speed=18.7x    frame=12957 fps=448 q=-0.0 size=N/A time=00:09:00.41 bitrate=N/A speed=18.7x    frame=13152 fps=447 q=-0.0 size=N/A time=00:09:08.54 bitrate=N/A speed=18.6x    frame=13372 fps=447 q=-0.0 size=N/A time=00:09:17.72 bitrate=N/A speed=18.6x    frame=13641 fps=448 q=-0.0 size=N/A time=00:09:28.94 bitrate=N/A speed=18.7x    frame=13917 fps=449 q=-0.0 size=N/A time=00:09:40.45 bitrate=N/A speed=18.7x    frame=14173 fps=450 q=-0.0 size=N/A time=00:09:51.13 bitrate=N/A speed=18.8x    frame=14428 fps=451 q=-0.0 size=N/A time=00:10:01.76 bitrate=N/A speed=18.8x    frame=14665 fps=451 q=-0.0 size=N/A time=00:10:11.65 bitrate=N/A speed=18.8x    frame=14916 fps=451 q=-0.0 size=N/A time=00:10:22.12 bitrate=N/A speed=18.8x    frame=15166 fps=452 q=-0.0 size=N/A time=00:10:32.54 bitrate=N/A speed=18.8x    frame=15432 fps=453 q=-0.0 size=N/A time=00:10:43.64 bitrate=N/A speed=18.9x    frame=15714 fps=454 q=-0.0 size=N/A time=00:10:55.40 bitrate=N/A speed=18.9x    frame=15975 fps=455 q=-0.0 size=N/A time=00:11:06.29 bitrate=N/A speed=  19x    frame=16247 fps=456 q=-0.0 size=N/A time=00:11:17.63 bitrate=N/A speed=  19x    frame=16499 fps=457 q=-0.0 size=N/A time=00:11:28.14 bitrate=N/A speed=  19x    frame=16771 fps=458 q=-0.0 size=N/A time=00:11:39.49 bitrate=N/A speed=19.1x    frame=17035 fps=458 q=-0.0 size=N/A time=00:11:50.50 bitrate=N/A speed=19.1x    frame=17298 fps=459 q=-0.0 size=N/A time=00:12:01.47 bitrate=N/A speed=19.1x    frame=17572 fps=460 q=-0.0 size=N/A time=00:12:12.89 bitrate=N/A speed=19.2x    frame=17830 fps=461 q=-0.0 size=N/A time=00:12:23.65 bitrate=N/A speed=19.2x    frame=18048 fps=460 q=-0.0 size=N/A time=00:12:32.75 bitrate=N/A speed=19.2x    frame=18263 fps=459 q=-0.0 size=N/A time=00:12:41.71 bitrate=N/A speed=19.2x    frame=18482 fps=459 q=-0.0 size=N/A time=00:12:50.85 bitrate=N/A speed=19.1x    frame=18746 fps=460 q=-0.0 size=N/A time=00:13:01.86 bitrate=N/A speed=19.2x    frame=18978 fps=460 q=-0.0 size=N/A time=00:13:11.54 bitrate=N/A speed=19.2x    frame=19259 fps=461 q=-0.0 size=N/A time=00:13:23.26 bitrate=N/A speed=19.2x    frame=19527 fps=461 q=-0.0 size=N/A time=00:13:34.43 bitrate=N/A speed=19.2x    frame=19772 fps=461 q=-0.0 size=N/A time=00:13:44.65 bitrate=N/A speed=19.2x    frame=20018 fps=462 q=-0.0 size=N/A time=00:13:54.91 bitrate=N/A speed=19.3x    frame=20279 fps=462 q=-0.0 size=N/A time=00:14:05.84 bitrate=N/A speed=19.3x    frame=20544 fps=463 q=-0.0 size=N/A time=00:14:16.85 bitrate=N/A speed=19.3x    frame=20759 fps=462 q=-0.0 size=N/A time=00:14:25.82 bitrate=N/A speed=19.3x    frame=20971 fps=461 q=-0.0 size=N/A time=00:14:34.66 bitrate=N/A speed=19.2x    frame=21190 fps=461 q=-0.0 size=N/A time=00:14:43.79 bitrate=N/A speed=19.2x    frame=21465 fps=462 q=-0.0 size=N/A time=00:14:55.26 bitrate=N/A speed=19.3x    frame=21723 fps=462 q=-0.0 size=N/A time=00:15:06.03 bitrate=N/A speed=19.3x    frame=22016 fps=463 q=-0.0 size=N/A time=00:15:18.25 bitrate=N/A speed=19.3x    frame=22276 fps=464 q=-0.0 size=N/A time=00:15:29.09 bitrate=N/A speed=19.3x    frame=22532 fps=464 q=-0.0 size=N/A time=00:15:39.77 bitrate=N/A speed=19.4x    frame=22772 fps=464 q=-0.0 size=N/A time=00:15:49.78 bitrate=N/A speed=19.4x    frame=23045 fps=465 q=-0.0 size=N/A time=00:16:01.16 bitrate=N/A speed=19.4x    frame=23307 fps=465 q=-0.0 size=N/A time=00:16:12.09 bitrate=N/A speed=19.4x    frame=23556 fps=466 q=-0.0 size=N/A time=00:16:22.48 bitrate=N/A speed=19.4x    frame=23828 fps=466 q=-0.0 size=N/A time=00:16:33.82 bitrate=N/A speed=19.4x    frame=24105 fps=467 q=-0.0 size=N/A time=00:16:45.37 bitrate=N/A speed=19.5x    frame=24362 fps=467 q=-0.0 size=N/A time=00:16:56.09 bitrate=N/A speed=19.5x    frame=24603 fps=467 q=-0.0 size=N/A time=00:17:06.15 bitrate=N/A speed=19.5x    frame=24849 fps=467 q=-0.0 size=N/A time=00:17:16.41 bitrate=N/A speed=19.5x    frame=25131 fps=468 q=-0.0 size=N/A time=00:17:28.17 bitrate=N/A speed=19.5x    frame=25345 fps=468 q=-0.0 size=N/A time=00:17:37.09 bitrate=N/A speed=19.5x    frame=25610 fps=468 q=-0.0 size=N/A time=00:17:48.15 bitrate=N/A speed=19.5x    frame=25853 fps=468 q=-0.0 size=N/A time=00:17:58.28 bitrate=N/A speed=19.5x    frame=26109 fps=468 q=-0.0 size=N/A time=00:18:08.96 bitrate=N/A speed=19.5x    frame=26370 fps=469 q=-0.0 size=N/A time=00:18:19.84 bitrate=N/A speed=19.5x    frame=26620 fps=469 q=-0.0 size=N/A time=00:18:30.27 bitrate=N/A speed=19.5x    frame=26804 fps=468 q=-0.0 size=N/A time=00:18:37.95 bitrate=N/A speed=19.5x    frame=27060 fps=468 q=-0.0 size=N/A time=00:18:48.62 bitrate=N/A speed=19.5x    frame=27283 fps=468 q=-0.0 size=N/A time=00:18:57.92 bitrate=N/A speed=19.5x    frame=27531 fps=468 q=-0.0 size=N/A time=00:19:08.27 bitrate=N/A speed=19.5x    frame=27770 fps=468 q=-0.0 size=N/A time=00:19:18.24 bitrate=N/A speed=19.5x    frame=27997 fps=467 q=-0.0 size=N/A time=00:19:27.70 bitrate=N/A speed=19.5x    frame=28255 fps=468 q=-0.0 size=N/A time=00:19:38.46 bitrate=N/A speed=19.5x    frame=28514 fps=468 q=-0.0 size=N/A time=00:19:49.27 bitrate=N/A speed=19.5x    frame=28770 fps=468 q=-0.0 size=N/A time=00:19:59.94 bitrate=N/A speed=19.5x    frame=29037 fps=469 q=-0.0 size=N/A time=00:20:11.08 bitrate=N/A speed=19.5x    frame=29285 fps=469 q=-0.0 size=N/A time=00:20:21.42 bitrate=N/A speed=19.6x    frame=29504 fps=468 q=-0.0 size=N/A time=00:20:30.56 bitrate=N/A speed=19.5x    frame=29655 fps=467 q=-0.0 size=N/A time=00:20:36.86 bitrate=N/A speed=19.5x    frame=29805 fps=466 q=-0.0 size=N/A time=00:20:43.11 bitrate=N/A speed=19.4x    frame=29942 fps=464 q=-0.0 size=N/A time=00:20:48.83 bitrate=N/A speed=19.4x    frame=30069 fps=462 q=-0.0 size=N/A time=00:20:54.12 bitrate=N/A speed=19.3x    frame=30205 fps=461 q=-0.0 size=N/A time=00:20:59.80 bitrate=N/A speed=19.2x    frame=30340 fps=459 q=-0.0 size=N/A time=00:21:05.43 bitrate=N/A speed=19.1x    frame=30464 fps=457 q=-0.0 size=N/A time=00:21:10.60 bitrate=N/A speed=19.1x    frame=30594 fps=456 q=-0.0 size=N/A time=00:21:16.02 bitrate=N/A speed=  19x    frame=30724 fps=454 q=-0.0 size=N/A time=00:21:21.44 bitrate=N/A speed=18.9x    frame=30861 fps=453 q=-0.0 size=N/A time=00:21:27.16 bitrate=N/A speed=18.9x    frame=31040 fps=452 q=-0.0 size=N/A time=00:21:34.62 bitrate=N/A speed=18.9x    frame=31251 fps=452 q=-0.0 size=N/A time=00:21:43.42 bitrate=N/A speed=18.8x    frame=31455 fps=451 q=-0.0 size=N/A time=00:21:51.93 bitrate=N/A speed=18.8x    frame=31714 fps=452 q=-0.0 size=N/A time=00:22:02.73 bitrate=N/A speed=18.8x    frame=31988 fps=452 q=-0.0 size=N/A time=00:22:14.16 bitrate=N/A speed=18.9x    frame=32230 fps=452 q=-0.0 size=N/A time=00:22:24.25 bitrate=N/A speed=18.9x    frame=32488 fps=453 q=-0.0 size=N/A time=00:22:35.02 bitrate=N/A speed=18.9x    frame=32722 fps=453 q=-0.0 size=N/A time=00:22:44.78 bitrate=N/A speed=18.9x    frame=32971 fps=453 q=-0.0 size=N/A time=00:22:55.16 bitrate=N/A speed=18.9x    frame=33214 fps=453 q=-0.0 size=N/A time=00:23:05.30 bitrate=N/A speed=18.9x    frame=33454 fps=453 q=-0.0 size=N/A time=00:23:15.31 bitrate=N/A speed=18.9x    frame=33708 fps=453 q=-0.0 size=N/A time=00:23:25.90 bitrate=N/A speed=18.9x    frame=33974 fps=454 q=-0.0 size=N/A time=00:23:36.99 bitrate=N/A speed=18.9x    frame=34226 fps=454 q=-0.0 size=N/A time=00:23:47.50 bitrate=N/A speed=18.9x    frame=34501 fps=455 q=-0.0 size=N/A time=00:23:58.97 bitrate=N/A speed=  19x    frame=34749 fps=455 q=-0.0 size=N/A time=00:24:09.32 bitrate=N/A speed=  19x    [Parsed_psnr_10 @ 000001f390207300] PSNR y:48.770772 u:50.896926 v:50.306035 average:49.297159 min:39.611638 max:inf
[out#0/null @ 000001f390550640] video:15006KiB audio:273132KiB subtitle:0KiB other streams:0KiB global headers:0KiB muxing overhead: unknown
frame=34922 fps=455 q=-0.0 Lsize=N/A time=00:24:16.53 bitrate=N/A speed=  19x    
